<svg xmlns="http://www.w3.org/2000/svg" xmlns:xlink="http://www.w3.org/1999/xlink" width="500" zoomAndPan="magnify" viewBox="0 0 375 374.999991" height="500" preserveAspectRatio="xMidYMid meet" version="1.0"><defs><g/></defs><rect x="-37.5" width="450" fill="#ffffff" y="-37.499999" height="449.999989" fill-opacity="1"/><rect x="-37.5" width="450" fill="#000000" y="-37.499999" height="449.999989" fill-opacity="1"/><rect x="-37.5" width="450" fill="#ffffff" y="-37.499999" height="449.999989" fill-opacity="1"/><rect x="-37.5" width="450" fill="#000000" y="-37.499999" height="449.999989" fill-opacity="1"/><g fill="#f2e8ed" fill-opacity="1"><g transform="translate(105.406925, 258.227158)"><g><path d="M 7.148438 -71.472656 C 7.148438 -30.222656 40.023438 2.65625 81.273438 2.65625 C 122.523438 2.65625 155.605469 -30.222656 155.605469 -71.472656 C 155.605469 -112.722656 122.523438 -145.804688 81.273438 -145.804688 C 40.023438 -145.804688 7.148438 -112.722656 7.148438 -71.472656 Z M 28.386719 -71.472656 C 28.386719 -100.878906 51.867188 -124.566406 81.273438 -124.566406 C 110.679688 -124.566406 134.371094 -100.878906 134.371094 -71.472656 C 134.371094 -42.066406 110.679688 -18.582031 81.273438 -18.582031 C 51.867188 -18.582031 28.386719 -42.066406 28.386719 -71.472656 Z M 28.386719 -71.472656 "/></g></g></g></svg>