<svg xmlns="http://www.w3.org/2000/svg" xmlns:xlink="http://www.w3.org/1999/xlink" width="500" zoomAndPan="magnify" viewBox="0 0 375 374.999991" height="500" preserveAspectRatio="xMidYMid meet" version="1.0"><defs><g/></defs><g fill="#000000" fill-opacity="1"><g transform="translate(118.587887, 203.249987)"><g><path d="M 15.8125 0.375 C 13.28125 0.375 10.941406 -0.210938 8.796875 -1.390625 C 6.660156 -2.566406 4.957031 -4.242188 3.6875 -6.421875 C 2.414062 -8.597656 1.78125 -11.128906 1.78125 -14.015625 C 1.78125 -16.929688 2.414062 -19.472656 3.6875 -21.640625 C 4.957031 -23.804688 6.660156 -25.472656 8.796875 -26.640625 C 10.941406 -27.804688 13.28125 -28.390625 15.8125 -28.390625 C 18.34375 -28.390625 20.675781 -27.804688 22.8125 -26.640625 C 24.957031 -25.472656 26.660156 -23.804688 27.921875 -21.640625 C 29.191406 -19.472656 29.828125 -16.929688 29.828125 -14.015625 C 29.828125 -11.128906 29.191406 -8.597656 27.921875 -6.421875 C 26.660156 -4.242188 24.957031 -2.566406 22.8125 -1.390625 C 20.675781 -0.210938 18.34375 0.375 15.8125 0.375 Z M 15.8125 -3.453125 C 17.5625 -3.453125 19.15625 -3.863281 20.59375 -4.6875 C 22.039062 -5.507812 23.1875 -6.710938 24.03125 -8.296875 C 24.882812 -9.878906 25.3125 -11.773438 25.3125 -13.984375 C 25.3125 -16.210938 24.882812 -18.117188 24.03125 -19.703125 C 23.1875 -21.285156 22.046875 -22.484375 20.609375 -23.296875 C 19.179688 -24.109375 17.582031 -24.515625 15.8125 -24.515625 C 14.03125 -24.515625 12.414062 -24.109375 10.96875 -23.296875 C 9.53125 -22.484375 8.394531 -21.285156 7.5625 -19.703125 C 6.726562 -18.117188 6.3125 -16.210938 6.3125 -13.984375 C 6.3125 -11.773438 6.738281 -9.878906 7.59375 -8.296875 C 8.457031 -6.710938 9.617188 -5.507812 11.078125 -4.6875 C 12.535156 -3.863281 14.113281 -3.453125 15.8125 -3.453125 Z M 15.8125 -3.453125 "/></g></g></g><g fill="#000000" fill-opacity="1"><g transform="translate(150.197427, 203.249987)"><g><path d="M 2.703125 -17.4375 L 6.796875 -17.4375 L 6.796875 -14.28125 C 7.359375 -15.476562 8.175781 -16.378906 9.25 -16.984375 C 10.332031 -17.585938 11.566406 -17.890625 12.953125 -17.890625 C 16.066406 -17.867188 17.984375 -16.796875 18.703125 -14.671875 C 19.253906 -15.660156 20.085938 -16.441406 21.203125 -17.015625 C 22.316406 -17.597656 23.492188 -17.890625 24.734375 -17.890625 C 26.554688 -17.890625 27.9375 -17.539062 28.875 -16.84375 C 29.8125 -16.15625 30.4375 -15.171875 30.75 -13.890625 C 31.070312 -12.609375 31.234375 -10.890625 31.234375 -8.734375 L 31.234375 0 L 27.09375 0 L 27.09375 -8.78125 C 27.09375 -10.832031 26.882812 -12.300781 26.46875 -13.1875 C 26.050781 -14.070312 25.242188 -14.515625 24.046875 -14.515625 C 22.453125 -14.515625 21.242188 -13.972656 20.421875 -12.890625 C 19.597656 -11.816406 19.1875 -10.40625 19.1875 -8.65625 L 19.1875 0 L 15.09375 0 L 15.09375 -9.390625 C 15.09375 -10.734375 15.039062 -11.734375 14.9375 -12.390625 C 14.832031 -13.046875 14.550781 -13.5625 14.09375 -13.9375 C 13.632812 -14.320312 12.898438 -14.515625 11.890625 -14.515625 C 11.003906 -14.515625 10.175781 -14.25 9.40625 -13.71875 C 8.632812 -13.1875 8.015625 -12.46875 7.546875 -11.5625 C 7.078125 -10.664062 6.84375 -9.695312 6.84375 -8.65625 L 6.84375 0 L 2.703125 0 Z M 2.703125 -17.4375 "/></g></g></g><g fill="#000000" fill-opacity="1"><g transform="translate(183.972522, 203.249987)"><g><path d="M 2.703125 -17.4375 L 6.71875 -17.4375 L 6.765625 -14.25 C 7.242188 -15.3125 8.003906 -16.179688 9.046875 -16.859375 C 10.085938 -17.546875 11.300781 -17.890625 12.6875 -17.890625 C 14.488281 -17.890625 15.867188 -17.515625 16.828125 -16.765625 C 17.796875 -16.023438 18.441406 -14.984375 18.765625 -13.640625 C 19.097656 -12.296875 19.265625 -10.546875 19.265625 -8.390625 L 19.265625 0 L 15.15625 0 L 15.15625 -8.28125 C 15.15625 -10.488281 14.941406 -12.078125 14.515625 -13.046875 C 14.085938 -14.023438 13.203125 -14.515625 11.859375 -14.515625 C 11.097656 -14.515625 10.320312 -14.28125 9.53125 -13.8125 C 8.75 -13.34375 8.097656 -12.664062 7.578125 -11.78125 C 7.054688 -10.894531 6.796875 -9.851562 6.796875 -8.65625 L 6.796875 0 L 2.703125 0 Z M 2.703125 -17.4375 "/></g></g></g><g fill="#000000" fill-opacity="1"><g transform="translate(205.818056, 203.249987)"><g><path d="M 3 -17.4375 L 7.265625 -17.4375 L 7.265625 0 L 3 0 Z M 5.09375 -20.703125 C 4.3125 -20.703125 3.65625 -20.96875 3.125 -21.5 C 2.59375 -22.039062 2.328125 -22.703125 2.328125 -23.484375 C 2.328125 -24.191406 2.59375 -24.796875 3.125 -25.296875 C 3.65625 -25.804688 4.3125 -26.0625 5.09375 -26.0625 C 5.851562 -26.0625 6.5 -25.804688 7.03125 -25.296875 C 7.5625 -24.796875 7.828125 -24.191406 7.828125 -23.484375 C 7.828125 -22.703125 7.566406 -22.039062 7.046875 -21.5 C 6.535156 -20.96875 5.882812 -20.703125 5.09375 -20.703125 Z M 5.09375 -20.703125 "/></g></g></g><g fill="#000000" fill-opacity="1"><g transform="translate(216.075955, 203.249987)"><g><path d="M 2.96875 -27.9375 L 9.125 -27.9375 C 12.59375 -27.9375 15.128906 -27.191406 16.734375 -25.703125 C 18.347656 -24.222656 19.15625 -22.191406 19.15625 -19.609375 C 19.15625 -16.617188 18.28125 -14.328125 16.53125 -12.734375 C 14.78125 -11.140625 12.179688 -10.34375 8.734375 -10.34375 L 7.265625 -10.34375 L 7.265625 0 L 2.96875 0 Z M 8.859375 -14.09375 C 11.085938 -14.09375 12.644531 -14.585938 13.53125 -15.578125 C 14.414062 -16.566406 14.859375 -17.757812 14.859375 -19.15625 C 14.859375 -20.644531 14.425781 -21.859375 13.5625 -22.796875 C 12.707031 -23.734375 11.265625 -24.203125 9.234375 -24.203125 L 7.265625 -24.203125 L 7.265625 -14.09375 Z M 8.859375 -14.09375 "/></g></g></g><g fill="#000000" fill-opacity="1"><g transform="translate(236.211845, 203.249987)"><g><path d="M 10.9375 0.375 C 8.863281 0.375 7.128906 -0.0351562 5.734375 -0.859375 C 4.335938 -1.679688 3.3125 -2.78125 2.65625 -4.15625 C 2 -5.539062 1.671875 -7.054688 1.671875 -8.703125 C 1.671875 -10.546875 2.054688 -12.164062 2.828125 -13.5625 C 3.597656 -14.957031 4.664062 -16.023438 6.03125 -16.765625 C 7.40625 -17.515625 8.953125 -17.890625 10.671875 -17.890625 C 13.359375 -17.890625 15.351562 -17.148438 16.65625 -15.671875 C 17.96875 -14.191406 18.625 -12.109375 18.625 -9.421875 C 18.625 -8.734375 18.582031 -8.023438 18.5 -7.296875 L 5.96875 -7.296875 C 6.25 -5.753906 6.800781 -4.640625 7.625 -3.953125 C 8.445312 -3.265625 9.59375 -2.921875 11.0625 -2.921875 C 12.269531 -2.921875 13.265625 -3.019531 14.046875 -3.21875 C 14.835938 -3.425781 15.5625 -3.707031 16.21875 -4.0625 L 17.484375 -1.140625 C 16.847656 -0.734375 15.984375 -0.378906 14.890625 -0.078125 C 13.804688 0.222656 12.488281 0.375 10.9375 0.375 Z M 14.625 -10.140625 C 14.65625 -11.710938 14.316406 -12.820312 13.609375 -13.46875 C 12.898438 -14.113281 11.882812 -14.4375 10.5625 -14.4375 C 7.90625 -14.4375 6.375 -13.003906 5.96875 -10.140625 Z M 14.625 -10.140625 "/></g></g></g></svg>