<svg xmlns="http://www.w3.org/2000/svg" xmlns:xlink="http://www.w3.org/1999/xlink" width="500" zoomAndPan="magnify" viewBox="0 0 375 374.999991" height="500" preserveAspectRatio="xMidYMid meet" version="1.0"><defs><g/></defs><g fill="#ecf4f3" fill-opacity="1"><g transform="translate(109.499997, 207.999946)"><g><path d="M 17.890625 0.4375 C 15.023438 0.4375 12.378906 -0.226562 9.953125 -1.5625 C 7.535156 -2.894531 5.609375 -4.796875 4.171875 -7.265625 C 2.734375 -9.734375 2.015625 -12.597656 2.015625 -15.859375 C 2.015625 -19.160156 2.734375 -22.035156 4.171875 -24.484375 C 5.609375 -26.941406 7.535156 -28.828125 9.953125 -30.140625 C 12.378906 -31.460938 15.023438 -32.125 17.890625 -32.125 C 20.753906 -32.125 23.394531 -31.460938 25.8125 -30.140625 C 28.238281 -28.828125 30.164062 -26.941406 31.59375 -24.484375 C 33.03125 -22.035156 33.75 -19.160156 33.75 -15.859375 C 33.75 -12.597656 33.03125 -9.734375 31.59375 -7.265625 C 30.164062 -4.796875 28.238281 -2.894531 25.8125 -1.5625 C 23.394531 -0.226562 20.753906 0.4375 17.890625 0.4375 Z M 17.890625 -3.90625 C 19.867188 -3.90625 21.671875 -4.367188 23.296875 -5.296875 C 24.929688 -6.234375 26.226562 -7.597656 27.1875 -9.390625 C 28.15625 -11.179688 28.640625 -13.328125 28.640625 -15.828125 C 28.640625 -18.347656 28.15625 -20.503906 27.1875 -22.296875 C 26.226562 -24.085938 24.9375 -25.441406 23.3125 -26.359375 C 21.695312 -27.273438 19.890625 -27.734375 17.890625 -27.734375 C 15.878906 -27.734375 14.054688 -27.273438 12.421875 -26.359375 C 10.785156 -25.441406 9.492188 -24.085938 8.546875 -22.296875 C 7.609375 -20.503906 7.140625 -18.347656 7.140625 -15.828125 C 7.140625 -13.328125 7.625 -11.179688 8.59375 -9.390625 C 9.570312 -7.597656 10.882812 -6.234375 12.53125 -5.296875 C 14.175781 -4.367188 15.960938 -3.90625 17.890625 -3.90625 Z M 17.890625 -3.90625 "/></g></g></g><g fill="#ecf4f3" fill-opacity="1"><g transform="translate(145.272807, 207.999946)"><g><path d="M 3.046875 -19.734375 L 7.703125 -19.734375 L 7.703125 -16.171875 C 8.328125 -17.515625 9.25 -18.53125 10.46875 -19.21875 C 11.6875 -19.90625 13.082031 -20.25 14.65625 -20.25 C 18.1875 -20.21875 20.351562 -19 21.15625 -16.59375 C 21.789062 -17.71875 22.738281 -18.609375 24 -19.265625 C 25.257812 -19.921875 26.59375 -20.25 28 -20.25 C 30.0625 -20.25 31.617188 -19.851562 32.671875 -19.0625 C 33.734375 -18.28125 34.441406 -17.164062 34.796875 -15.71875 C 35.160156 -14.269531 35.34375 -12.328125 35.34375 -9.890625 L 35.34375 0 L 30.65625 0 L 30.65625 -9.9375 C 30.65625 -12.257812 30.414062 -13.921875 29.9375 -14.921875 C 29.46875 -15.921875 28.5625 -16.421875 27.21875 -16.421875 C 25.414062 -16.421875 24.046875 -15.8125 23.109375 -14.59375 C 22.179688 -13.375 21.71875 -11.773438 21.71875 -9.796875 L 21.71875 0 L 17.078125 0 L 17.078125 -10.625 C 17.078125 -12.144531 17.019531 -13.273438 16.90625 -14.015625 C 16.789062 -14.765625 16.472656 -15.351562 15.953125 -15.78125 C 15.429688 -16.207031 14.597656 -16.421875 13.453125 -16.421875 C 12.453125 -16.421875 11.515625 -16.117188 10.640625 -15.515625 C 9.765625 -14.921875 9.0625 -14.113281 8.53125 -13.09375 C 8 -12.070312 7.734375 -10.972656 7.734375 -9.796875 L 7.734375 0 L 3.046875 0 Z M 3.046875 -19.734375 "/></g></g></g><g fill="#ecf4f3" fill-opacity="1"><g transform="translate(183.496403, 207.999946)"><g><path d="M 3.046875 -19.734375 L 7.609375 -19.734375 L 7.65625 -16.125 C 8.195312 -17.332031 9.054688 -18.320312 10.234375 -19.09375 C 11.410156 -19.863281 12.785156 -20.25 14.359375 -20.25 C 16.398438 -20.25 17.960938 -19.828125 19.046875 -18.984375 C 20.140625 -18.140625 20.867188 -16.957031 21.234375 -15.4375 C 21.609375 -13.914062 21.796875 -11.9375 21.796875 -9.5 L 21.796875 0 L 17.15625 0 L 17.15625 -9.375 C 17.15625 -11.863281 16.910156 -13.660156 16.421875 -14.765625 C 15.929688 -15.867188 14.929688 -16.421875 13.421875 -16.421875 C 12.554688 -16.421875 11.675781 -16.15625 10.78125 -15.625 C 9.894531 -15.09375 9.160156 -14.328125 8.578125 -13.328125 C 7.992188 -12.328125 7.703125 -11.148438 7.703125 -9.796875 L 7.703125 0 L 3.046875 0 Z M 3.046875 -19.734375 "/></g></g></g><g fill="#ecf4f3" fill-opacity="1"><g transform="translate(208.219199, 207.999946)"><g><path d="M 3.390625 -19.734375 L 8.21875 -19.734375 L 8.21875 0 L 3.390625 0 Z M 5.765625 -23.4375 C 4.878906 -23.4375 4.132812 -23.734375 3.53125 -24.328125 C 2.925781 -24.929688 2.625 -25.679688 2.625 -26.578125 C 2.625 -27.378906 2.925781 -28.066406 3.53125 -28.640625 C 4.132812 -29.210938 4.878906 -29.5 5.765625 -29.5 C 6.628906 -29.5 7.359375 -29.210938 7.953125 -28.640625 C 8.554688 -28.066406 8.859375 -27.378906 8.859375 -26.578125 C 8.859375 -25.679688 8.5625 -24.929688 7.96875 -24.328125 C 7.382812 -23.734375 6.648438 -23.4375 5.765625 -23.4375 Z M 5.765625 -23.4375 "/></g></g></g><g fill="#ecf4f3" fill-opacity="1"><g transform="translate(219.828165, 207.999946)"><g><path d="M 3.359375 -31.609375 L 10.3125 -31.609375 C 14.25 -31.609375 17.125 -30.769531 18.9375 -29.09375 C 20.757812 -27.414062 21.671875 -25.113281 21.671875 -22.1875 C 21.671875 -18.800781 20.679688 -16.207031 18.703125 -14.40625 C 16.722656 -12.601562 13.785156 -11.703125 9.890625 -11.703125 L 8.21875 -11.703125 L 8.21875 0 L 3.359375 0 Z M 10.015625 -15.953125 C 12.535156 -15.953125 14.296875 -16.507812 15.296875 -17.625 C 16.304688 -18.75 16.8125 -20.097656 16.8125 -21.671875 C 16.8125 -23.359375 16.320312 -24.734375 15.34375 -25.796875 C 14.375 -26.859375 12.742188 -27.390625 10.453125 -27.390625 L 8.21875 -27.390625 L 8.21875 -15.953125 Z M 10.015625 -15.953125 "/></g></g></g><g fill="#ecf4f3" fill-opacity="1"><g transform="translate(242.616131, 207.999946)"><g><path d="M 12.390625 0.4375 C 10.035156 0.4375 8.066406 -0.0234375 6.484375 -0.953125 C 4.910156 -1.890625 3.75 -3.140625 3 -4.703125 C 2.257812 -6.265625 1.890625 -7.976562 1.890625 -9.84375 C 1.890625 -11.9375 2.328125 -13.769531 3.203125 -15.34375 C 4.078125 -16.925781 5.285156 -18.140625 6.828125 -18.984375 C 8.378906 -19.828125 10.128906 -20.25 12.078125 -20.25 C 15.117188 -20.25 17.375 -19.410156 18.84375 -17.734375 C 20.320312 -16.054688 21.0625 -13.695312 21.0625 -10.65625 C 21.0625 -9.882812 21.019531 -9.082031 20.9375 -8.25 L 6.75 -8.25 C 7.0625 -6.507812 7.679688 -5.25 8.609375 -4.46875 C 9.546875 -3.695312 10.847656 -3.3125 12.515625 -3.3125 C 13.890625 -3.3125 15.019531 -3.425781 15.90625 -3.65625 C 16.800781 -3.882812 17.617188 -4.195312 18.359375 -4.59375 L 19.78125 -1.296875 C 19.0625 -0.835938 18.082031 -0.429688 16.84375 -0.078125 C 15.613281 0.265625 14.128906 0.4375 12.390625 0.4375 Z M 16.5625 -11.484375 C 16.582031 -13.253906 16.191406 -14.503906 15.390625 -15.234375 C 14.585938 -15.972656 13.441406 -16.34375 11.953125 -16.34375 C 8.941406 -16.34375 7.207031 -14.722656 6.75 -11.484375 Z M 16.5625 -11.484375 "/></g></g></g><g fill="#ecf4f3" fill-opacity="1"><g transform="translate(81.506698, 230.680195)"><g><path d="M 7.90625 -7.265625 C 7.90625 -6.222656 7.550781 -5.421875 6.84375 -4.859375 C 6.132812 -4.304688 5.125 -4.03125 3.8125 -4.03125 L 2.59375 -4.03125 L 2.59375 0 L 1.40625 0 L 1.40625 -10.25 L 4.0625 -10.25 C 6.625 -10.25 7.90625 -9.253906 7.90625 -7.265625 Z M 2.59375 -5.0625 L 3.671875 -5.0625 C 4.734375 -5.0625 5.5 -5.226562 5.96875 -5.5625 C 6.4375 -5.90625 6.671875 -6.453125 6.671875 -7.203125 C 6.671875 -7.878906 6.445312 -8.382812 6 -8.71875 C 5.5625 -9.050781 4.875 -9.21875 3.9375 -9.21875 L 2.59375 -9.21875 Z M 2.59375 -5.0625 "/></g></g></g><g fill="#ecf4f3" fill-opacity="1"><g transform="translate(90.146464, 230.680195)"><g><path d="M 7.859375 -3.84375 C 7.859375 -2.59375 7.539062 -1.613281 6.90625 -0.90625 C 6.28125 -0.207031 5.414062 0.140625 4.3125 0.140625 C 3.625 0.140625 3.007812 -0.0195312 2.46875 -0.34375 C 1.9375 -0.664062 1.523438 -1.128906 1.234375 -1.734375 C 0.953125 -2.335938 0.8125 -3.039062 0.8125 -3.84375 C 0.8125 -5.101562 1.125 -6.082031 1.75 -6.78125 C 2.375 -7.476562 3.242188 -7.828125 4.359375 -7.828125 C 5.429688 -7.828125 6.28125 -7.46875 6.90625 -6.75 C 7.539062 -6.03125 7.859375 -5.0625 7.859375 -3.84375 Z M 2.015625 -3.84375 C 2.015625 -2.863281 2.207031 -2.113281 2.59375 -1.59375 C 2.988281 -1.082031 3.566406 -0.828125 4.328125 -0.828125 C 5.085938 -0.828125 5.664062 -1.082031 6.0625 -1.59375 C 6.457031 -2.113281 6.65625 -2.863281 6.65625 -3.84375 C 6.65625 -4.820312 6.457031 -5.566406 6.0625 -6.078125 C 5.664062 -6.585938 5.082031 -6.84375 4.3125 -6.84375 C 3.550781 -6.84375 2.976562 -6.585938 2.59375 -6.078125 C 2.207031 -5.578125 2.015625 -4.832031 2.015625 -3.84375 Z M 2.015625 -3.84375 "/></g></g></g><g fill="#ecf4f3" fill-opacity="1"><g transform="translate(98.814259, 230.680195)"><g><path d="M 7.515625 0 L 6.09375 -4.515625 C 6.007812 -4.785156 5.847656 -5.410156 5.609375 -6.390625 L 5.546875 -6.390625 C 5.359375 -5.566406 5.195312 -4.9375 5.0625 -4.5 L 3.609375 0 L 2.25 0 L 0.15625 -7.6875 L 1.375 -7.6875 C 1.875 -5.75 2.253906 -4.273438 2.515625 -3.265625 C 2.773438 -2.265625 2.921875 -1.585938 2.953125 -1.234375 L 3.015625 -1.234375 C 3.066406 -1.503906 3.148438 -1.847656 3.265625 -2.265625 C 3.378906 -2.691406 3.476562 -3.03125 3.5625 -3.28125 L 4.96875 -7.6875 L 6.234375 -7.6875 L 7.609375 -3.28125 C 7.867188 -2.46875 8.046875 -1.789062 8.140625 -1.25 L 8.203125 -1.25 C 8.210938 -1.414062 8.257812 -1.671875 8.34375 -2.015625 C 8.425781 -2.367188 8.914062 -4.257812 9.8125 -7.6875 L 11.015625 -7.6875 L 8.890625 0 Z M 7.515625 0 "/></g></g></g><g fill="#ecf4f3" fill-opacity="1"><g transform="translate(109.976584, 230.680195)"><g><path d="M 4.484375 0.140625 C 3.347656 0.140625 2.453125 -0.203125 1.796875 -0.890625 C 1.140625 -1.585938 0.8125 -2.550781 0.8125 -3.78125 C 0.8125 -5.019531 1.113281 -6.003906 1.71875 -6.734375 C 2.332031 -7.460938 3.148438 -7.828125 4.171875 -7.828125 C 5.140625 -7.828125 5.90625 -7.507812 6.46875 -6.875 C 7.03125 -6.238281 7.3125 -5.40625 7.3125 -4.375 L 7.3125 -3.625 L 2.015625 -3.625 C 2.035156 -2.726562 2.257812 -2.046875 2.6875 -1.578125 C 3.125 -1.109375 3.734375 -0.875 4.515625 -0.875 C 5.347656 -0.875 6.164062 -1.046875 6.96875 -1.390625 L 6.96875 -0.359375 C 6.5625 -0.179688 6.175781 -0.0546875 5.8125 0.015625 C 5.445312 0.0976562 5.003906 0.140625 4.484375 0.140625 Z M 4.171875 -6.84375 C 3.546875 -6.84375 3.050781 -6.640625 2.6875 -6.234375 C 2.320312 -5.835938 2.109375 -5.285156 2.046875 -4.578125 L 6.0625 -4.578125 C 6.0625 -5.304688 5.894531 -5.863281 5.5625 -6.25 C 5.238281 -6.644531 4.773438 -6.84375 4.171875 -6.84375 Z M 4.171875 -6.84375 "/></g></g></g><g fill="#ecf4f3" fill-opacity="1"><g transform="translate(118.027753, 230.680195)"><g><path d="M 4.734375 -7.828125 C 5.078125 -7.828125 5.382812 -7.796875 5.65625 -7.734375 L 5.5 -6.65625 C 5.175781 -6.726562 4.894531 -6.765625 4.65625 -6.765625 C 4.03125 -6.765625 3.492188 -6.507812 3.046875 -6 C 2.609375 -5.5 2.390625 -4.875 2.390625 -4.125 L 2.390625 0 L 1.234375 0 L 1.234375 -7.6875 L 2.1875 -7.6875 L 2.328125 -6.265625 L 2.390625 -6.265625 C 2.671875 -6.765625 3.007812 -7.148438 3.40625 -7.421875 C 3.8125 -7.691406 4.253906 -7.828125 4.734375 -7.828125 Z M 4.734375 -7.828125 "/></g></g></g><g fill="#ecf4f3" fill-opacity="1"><g transform="translate(123.885696, 230.680195)"><g><path d="M 2.390625 0 L 1.234375 0 L 1.234375 -7.6875 L 2.390625 -7.6875 Z M 1.140625 -9.765625 C 1.140625 -10.035156 1.203125 -10.226562 1.328125 -10.34375 C 1.460938 -10.46875 1.628906 -10.53125 1.828125 -10.53125 C 2.015625 -10.53125 2.175781 -10.46875 2.3125 -10.34375 C 2.445312 -10.21875 2.515625 -10.023438 2.515625 -9.765625 C 2.515625 -9.503906 2.445312 -9.304688 2.3125 -9.171875 C 2.175781 -9.046875 2.015625 -8.984375 1.828125 -8.984375 C 1.628906 -8.984375 1.460938 -9.046875 1.328125 -9.171875 C 1.203125 -9.304688 1.140625 -9.503906 1.140625 -9.765625 Z M 1.140625 -9.765625 "/></g></g></g><g fill="#ecf4f3" fill-opacity="1"><g transform="translate(127.515379, 230.680195)"><g><path d="M 6.5 0 L 6.5 -4.96875 C 6.5 -5.59375 6.351562 -6.0625 6.0625 -6.375 C 5.78125 -6.6875 5.332031 -6.84375 4.71875 -6.84375 C 3.914062 -6.84375 3.328125 -6.625 2.953125 -6.1875 C 2.578125 -5.75 2.390625 -5.03125 2.390625 -4.03125 L 2.390625 0 L 1.234375 0 L 1.234375 -7.6875 L 2.1875 -7.6875 L 2.375 -6.625 L 2.421875 -6.625 C 2.660156 -7.007812 2.992188 -7.304688 3.421875 -7.515625 C 3.859375 -7.722656 4.335938 -7.828125 4.859375 -7.828125 C 5.785156 -7.828125 6.484375 -7.601562 6.953125 -7.15625 C 7.421875 -6.707031 7.65625 -5.992188 7.65625 -5.015625 L 7.65625 0 Z M 6.5 0 "/></g></g></g><g fill="#ecf4f3" fill-opacity="1"><g transform="translate(136.323315, 230.680195)"><g><path d="M 7.515625 -7.6875 L 7.515625 -6.953125 L 6.09375 -6.78125 C 6.226562 -6.613281 6.347656 -6.398438 6.453125 -6.140625 C 6.554688 -5.878906 6.609375 -5.582031 6.609375 -5.25 C 6.609375 -4.488281 6.347656 -3.882812 5.828125 -3.4375 C 5.316406 -2.988281 4.613281 -2.765625 3.71875 -2.765625 C 3.488281 -2.765625 3.273438 -2.785156 3.078125 -2.828125 C 2.578125 -2.566406 2.328125 -2.238281 2.328125 -1.84375 C 2.328125 -1.625 2.410156 -1.460938 2.578125 -1.359375 C 2.753906 -1.265625 3.054688 -1.21875 3.484375 -1.21875 L 4.84375 -1.21875 C 5.664062 -1.21875 6.300781 -1.039062 6.75 -0.6875 C 7.195312 -0.34375 7.421875 0.160156 7.421875 0.828125 C 7.421875 1.679688 7.078125 2.332031 6.390625 2.78125 C 5.710938 3.226562 4.722656 3.453125 3.421875 3.453125 C 2.410156 3.453125 1.632812 3.265625 1.09375 2.890625 C 0.550781 2.515625 0.28125 1.984375 0.28125 1.296875 C 0.28125 0.835938 0.425781 0.4375 0.71875 0.09375 C 1.019531 -0.25 1.441406 -0.484375 1.984375 -0.609375 C 1.785156 -0.691406 1.617188 -0.828125 1.484375 -1.015625 C 1.359375 -1.203125 1.296875 -1.421875 1.296875 -1.671875 C 1.296875 -1.953125 1.367188 -2.195312 1.515625 -2.40625 C 1.660156 -2.613281 1.894531 -2.816406 2.21875 -3.015625 C 1.820312 -3.179688 1.5 -3.457031 1.25 -3.84375 C 1 -4.238281 0.875 -4.691406 0.875 -5.203125 C 0.875 -6.035156 1.125 -6.679688 1.625 -7.140625 C 2.132812 -7.597656 2.851562 -7.828125 3.78125 -7.828125 C 4.175781 -7.828125 4.535156 -7.78125 4.859375 -7.6875 Z M 1.390625 1.296875 C 1.390625 1.710938 1.566406 2.023438 1.921875 2.234375 C 2.273438 2.453125 2.773438 2.5625 3.421875 2.5625 C 4.398438 2.5625 5.125 2.414062 5.59375 2.125 C 6.0625 1.832031 6.296875 1.4375 6.296875 0.9375 C 6.296875 0.519531 6.164062 0.226562 5.90625 0.0625 C 5.65625 -0.09375 5.175781 -0.171875 4.46875 -0.171875 L 3.078125 -0.171875 C 2.546875 -0.171875 2.128906 -0.046875 1.828125 0.203125 C 1.535156 0.453125 1.390625 0.816406 1.390625 1.296875 Z M 2.03125 -5.21875 C 2.03125 -4.6875 2.179688 -4.28125 2.484375 -4 C 2.785156 -3.726562 3.207031 -3.59375 3.75 -3.59375 C 4.882812 -3.59375 5.453125 -4.144531 5.453125 -5.25 C 5.453125 -6.394531 4.878906 -6.96875 3.734375 -6.96875 C 3.179688 -6.96875 2.757812 -6.820312 2.46875 -6.53125 C 2.175781 -6.238281 2.03125 -5.800781 2.03125 -5.21875 Z M 2.03125 -5.21875 "/></g></g></g><g fill="#ecf4f3" fill-opacity="1"><g transform="translate(144.185292, 230.680195)"><g/></g></g><g fill="#ecf4f3" fill-opacity="1"><g transform="translate(147.913074, 230.680195)"><g><path d="M 4.3125 0.140625 C 3.195312 0.140625 2.332031 -0.203125 1.71875 -0.890625 C 1.113281 -1.578125 0.8125 -2.546875 0.8125 -3.796875 C 0.8125 -5.078125 1.117188 -6.066406 1.734375 -6.765625 C 2.359375 -7.472656 3.238281 -7.828125 4.375 -7.828125 C 4.75 -7.828125 5.117188 -7.785156 5.484375 -7.703125 C 5.859375 -7.628906 6.148438 -7.535156 6.359375 -7.421875 L 6 -6.4375 C 5.738281 -6.539062 5.457031 -6.625 5.15625 -6.6875 C 4.851562 -6.757812 4.585938 -6.796875 4.359375 -6.796875 C 2.796875 -6.796875 2.015625 -5.800781 2.015625 -3.8125 C 2.015625 -2.863281 2.203125 -2.132812 2.578125 -1.625 C 2.960938 -1.125 3.53125 -0.875 4.28125 -0.875 C 4.914062 -0.875 5.570312 -1.015625 6.25 -1.296875 L 6.25 -0.265625 C 5.726562 0.00390625 5.082031 0.140625 4.3125 0.140625 Z M 4.3125 0.140625 "/></g></g></g><g fill="#ecf4f3" fill-opacity="1"><g transform="translate(154.745006, 230.680195)"><g><path d="M 4.734375 -7.828125 C 5.078125 -7.828125 5.382812 -7.796875 5.65625 -7.734375 L 5.5 -6.65625 C 5.175781 -6.726562 4.894531 -6.765625 4.65625 -6.765625 C 4.03125 -6.765625 3.492188 -6.507812 3.046875 -6 C 2.609375 -5.5 2.390625 -4.875 2.390625 -4.125 L 2.390625 0 L 1.234375 0 L 1.234375 -7.6875 L 2.1875 -7.6875 L 2.328125 -6.265625 L 2.390625 -6.265625 C 2.671875 -6.765625 3.007812 -7.148438 3.40625 -7.421875 C 3.8125 -7.691406 4.253906 -7.828125 4.734375 -7.828125 Z M 4.734375 -7.828125 "/></g></g></g><g fill="#ecf4f3" fill-opacity="1"><g transform="translate(160.60295, 230.680195)"><g><path d="M 7.859375 -3.84375 C 7.859375 -2.59375 7.539062 -1.613281 6.90625 -0.90625 C 6.28125 -0.207031 5.414062 0.140625 4.3125 0.140625 C 3.625 0.140625 3.007812 -0.0195312 2.46875 -0.34375 C 1.9375 -0.664062 1.523438 -1.128906 1.234375 -1.734375 C 0.953125 -2.335938 0.8125 -3.039062 0.8125 -3.84375 C 0.8125 -5.101562 1.125 -6.082031 1.75 -6.78125 C 2.375 -7.476562 3.242188 -7.828125 4.359375 -7.828125 C 5.429688 -7.828125 6.28125 -7.46875 6.90625 -6.75 C 7.539062 -6.03125 7.859375 -5.0625 7.859375 -3.84375 Z M 2.015625 -3.84375 C 2.015625 -2.863281 2.207031 -2.113281 2.59375 -1.59375 C 2.988281 -1.082031 3.566406 -0.828125 4.328125 -0.828125 C 5.085938 -0.828125 5.664062 -1.082031 6.0625 -1.59375 C 6.457031 -2.113281 6.65625 -2.863281 6.65625 -3.84375 C 6.65625 -4.820312 6.457031 -5.566406 6.0625 -6.078125 C 5.664062 -6.585938 5.082031 -6.84375 4.3125 -6.84375 C 3.550781 -6.84375 2.976562 -6.585938 2.59375 -6.078125 C 2.207031 -5.578125 2.015625 -4.832031 2.015625 -3.84375 Z M 2.015625 -3.84375 "/></g></g></g><g fill="#ecf4f3" fill-opacity="1"><g transform="translate(169.270744, 230.680195)"><g><path d="M 6.1875 -2.09375 C 6.1875 -1.382812 5.921875 -0.832031 5.390625 -0.4375 C 4.859375 -0.0507812 4.109375 0.140625 3.140625 0.140625 C 2.128906 0.140625 1.335938 -0.0195312 0.765625 -0.34375 L 0.765625 -1.421875 C 1.128906 -1.234375 1.523438 -1.085938 1.953125 -0.984375 C 2.378906 -0.878906 2.785156 -0.828125 3.171875 -0.828125 C 3.785156 -0.828125 4.253906 -0.921875 4.578125 -1.109375 C 4.898438 -1.304688 5.0625 -1.601562 5.0625 -2 C 5.0625 -2.300781 4.929688 -2.554688 4.671875 -2.765625 C 4.421875 -2.972656 3.914062 -3.222656 3.15625 -3.515625 C 2.445312 -3.785156 1.941406 -4.019531 1.640625 -4.21875 C 1.335938 -4.414062 1.113281 -4.640625 0.96875 -4.890625 C 0.820312 -5.140625 0.75 -5.441406 0.75 -5.796875 C 0.75 -6.421875 1 -6.914062 1.5 -7.28125 C 2.007812 -7.644531 2.710938 -7.828125 3.609375 -7.828125 C 4.429688 -7.828125 5.238281 -7.65625 6.03125 -7.3125 L 5.609375 -6.375 C 4.835938 -6.6875 4.140625 -6.84375 3.515625 -6.84375 C 2.960938 -6.84375 2.546875 -6.753906 2.265625 -6.578125 C 1.984375 -6.410156 1.84375 -6.175781 1.84375 -5.875 C 1.84375 -5.664062 1.894531 -5.488281 2 -5.34375 C 2.113281 -5.195312 2.285156 -5.054688 2.515625 -4.921875 C 2.753906 -4.796875 3.203125 -4.613281 3.859375 -4.375 C 4.773438 -4.039062 5.390625 -3.703125 5.703125 -3.359375 C 6.023438 -3.023438 6.1875 -2.601562 6.1875 -2.09375 Z M 6.1875 -2.09375 "/></g></g></g><g fill="#ecf4f3" fill-opacity="1"><g transform="translate(176.11669, 230.680195)"><g><path d="M 6.1875 -2.09375 C 6.1875 -1.382812 5.921875 -0.832031 5.390625 -0.4375 C 4.859375 -0.0507812 4.109375 0.140625 3.140625 0.140625 C 2.128906 0.140625 1.335938 -0.0195312 0.765625 -0.34375 L 0.765625 -1.421875 C 1.128906 -1.234375 1.523438 -1.085938 1.953125 -0.984375 C 2.378906 -0.878906 2.785156 -0.828125 3.171875 -0.828125 C 3.785156 -0.828125 4.253906 -0.921875 4.578125 -1.109375 C 4.898438 -1.304688 5.0625 -1.601562 5.0625 -2 C 5.0625 -2.300781 4.929688 -2.554688 4.671875 -2.765625 C 4.421875 -2.972656 3.914062 -3.222656 3.15625 -3.515625 C 2.445312 -3.785156 1.941406 -4.019531 1.640625 -4.21875 C 1.335938 -4.414062 1.113281 -4.640625 0.96875 -4.890625 C 0.820312 -5.140625 0.75 -5.441406 0.75 -5.796875 C 0.75 -6.421875 1 -6.914062 1.5 -7.28125 C 2.007812 -7.644531 2.710938 -7.828125 3.609375 -7.828125 C 4.429688 -7.828125 5.238281 -7.65625 6.03125 -7.3125 L 5.609375 -6.375 C 4.835938 -6.6875 4.140625 -6.84375 3.515625 -6.84375 C 2.960938 -6.84375 2.546875 -6.753906 2.265625 -6.578125 C 1.984375 -6.410156 1.84375 -6.175781 1.84375 -5.875 C 1.84375 -5.664062 1.894531 -5.488281 2 -5.34375 C 2.113281 -5.195312 2.285156 -5.054688 2.515625 -4.921875 C 2.753906 -4.796875 3.203125 -4.613281 3.859375 -4.375 C 4.773438 -4.039062 5.390625 -3.703125 5.703125 -3.359375 C 6.023438 -3.023438 6.1875 -2.601562 6.1875 -2.09375 Z M 6.1875 -2.09375 "/></g></g></g><g fill="#ecf4f3" fill-opacity="1"><g transform="translate(182.962636, 230.680195)"><g><path d="M 0.59375 -3.3125 L 0.59375 -4.375 L 4.03125 -4.375 L 4.03125 -3.3125 Z M 0.59375 -3.3125 "/></g></g></g><g fill="#ecf4f3" fill-opacity="1"><g transform="translate(187.580321, 230.680195)"><g><path d="M 4.3125 0.140625 C 3.195312 0.140625 2.332031 -0.203125 1.71875 -0.890625 C 1.113281 -1.578125 0.8125 -2.546875 0.8125 -3.796875 C 0.8125 -5.078125 1.117188 -6.066406 1.734375 -6.765625 C 2.359375 -7.472656 3.238281 -7.828125 4.375 -7.828125 C 4.75 -7.828125 5.117188 -7.785156 5.484375 -7.703125 C 5.859375 -7.628906 6.148438 -7.535156 6.359375 -7.421875 L 6 -6.4375 C 5.738281 -6.539062 5.457031 -6.625 5.15625 -6.6875 C 4.851562 -6.757812 4.585938 -6.796875 4.359375 -6.796875 C 2.796875 -6.796875 2.015625 -5.800781 2.015625 -3.8125 C 2.015625 -2.863281 2.203125 -2.132812 2.578125 -1.625 C 2.960938 -1.125 3.53125 -0.875 4.28125 -0.875 C 4.914062 -0.875 5.570312 -1.015625 6.25 -1.296875 L 6.25 -0.265625 C 5.726562 0.00390625 5.082031 0.140625 4.3125 0.140625 Z M 4.3125 0.140625 "/></g></g></g><g fill="#ecf4f3" fill-opacity="1"><g transform="translate(194.412253, 230.680195)"><g><path d="M 6.5 0 L 6.5 -4.96875 C 6.5 -5.59375 6.351562 -6.0625 6.0625 -6.375 C 5.78125 -6.6875 5.332031 -6.84375 4.71875 -6.84375 C 3.914062 -6.84375 3.328125 -6.617188 2.953125 -6.171875 C 2.578125 -5.734375 2.390625 -5.015625 2.390625 -4.015625 L 2.390625 0 L 1.234375 0 L 1.234375 -10.90625 L 2.390625 -10.90625 L 2.390625 -7.609375 C 2.390625 -7.210938 2.375 -6.882812 2.34375 -6.625 L 2.40625 -6.625 C 2.632812 -6.988281 2.960938 -7.273438 3.390625 -7.484375 C 3.816406 -7.703125 4.300781 -7.8125 4.84375 -7.8125 C 5.78125 -7.8125 6.484375 -7.585938 6.953125 -7.140625 C 7.421875 -6.691406 7.65625 -5.984375 7.65625 -5.015625 L 7.65625 0 Z M 6.5 0 "/></g></g></g><g fill="#ecf4f3" fill-opacity="1"><g transform="translate(203.220189, 230.680195)"><g><path d="M 5.953125 0 L 5.734375 -1.09375 L 5.671875 -1.09375 C 5.285156 -0.613281 4.898438 -0.285156 4.515625 -0.109375 C 4.140625 0.0546875 3.664062 0.140625 3.09375 0.140625 C 2.332031 0.140625 1.734375 -0.0507812 1.296875 -0.4375 C 0.867188 -0.832031 0.65625 -1.394531 0.65625 -2.125 C 0.65625 -3.675781 1.894531 -4.488281 4.375 -4.5625 L 5.6875 -4.609375 L 5.6875 -5.078125 C 5.6875 -5.679688 5.554688 -6.125 5.296875 -6.40625 C 5.035156 -6.695312 4.617188 -6.84375 4.046875 -6.84375 C 3.410156 -6.84375 2.6875 -6.648438 1.875 -6.265625 L 1.515625 -7.15625 C 1.898438 -7.351562 2.316406 -7.507812 2.765625 -7.625 C 3.210938 -7.75 3.664062 -7.8125 4.125 -7.8125 C 5.039062 -7.8125 5.71875 -7.609375 6.15625 -7.203125 C 6.601562 -6.796875 6.828125 -6.144531 6.828125 -5.25 L 6.828125 0 Z M 3.328125 -0.828125 C 4.054688 -0.828125 4.625 -1.023438 5.03125 -1.421875 C 5.445312 -1.816406 5.65625 -2.367188 5.65625 -3.078125 L 5.65625 -3.78125 L 4.5 -3.734375 C 3.570312 -3.703125 2.898438 -3.554688 2.484375 -3.296875 C 2.078125 -3.046875 1.875 -2.648438 1.875 -2.109375 C 1.875 -1.691406 2 -1.375 2.25 -1.15625 C 2.507812 -0.9375 2.867188 -0.828125 3.328125 -0.828125 Z M 3.328125 -0.828125 "/></g></g></g><g fill="#ecf4f3" fill-opacity="1"><g transform="translate(211.201287, 230.680195)"><g><path d="M 2.390625 0 L 1.234375 0 L 1.234375 -7.6875 L 2.390625 -7.6875 Z M 1.140625 -9.765625 C 1.140625 -10.035156 1.203125 -10.226562 1.328125 -10.34375 C 1.460938 -10.46875 1.628906 -10.53125 1.828125 -10.53125 C 2.015625 -10.53125 2.175781 -10.46875 2.3125 -10.34375 C 2.445312 -10.21875 2.515625 -10.023438 2.515625 -9.765625 C 2.515625 -9.503906 2.445312 -9.304688 2.3125 -9.171875 C 2.175781 -9.046875 2.015625 -8.984375 1.828125 -8.984375 C 1.628906 -8.984375 1.460938 -9.046875 1.328125 -9.171875 C 1.203125 -9.304688 1.140625 -9.503906 1.140625 -9.765625 Z M 1.140625 -9.765625 "/></g></g></g><g fill="#ecf4f3" fill-opacity="1"><g transform="translate(214.83097, 230.680195)"><g><path d="M 6.5 0 L 6.5 -4.96875 C 6.5 -5.59375 6.351562 -6.0625 6.0625 -6.375 C 5.78125 -6.6875 5.332031 -6.84375 4.71875 -6.84375 C 3.914062 -6.84375 3.328125 -6.625 2.953125 -6.1875 C 2.578125 -5.75 2.390625 -5.03125 2.390625 -4.03125 L 2.390625 0 L 1.234375 0 L 1.234375 -7.6875 L 2.1875 -7.6875 L 2.375 -6.625 L 2.421875 -6.625 C 2.660156 -7.007812 2.992188 -7.304688 3.421875 -7.515625 C 3.859375 -7.722656 4.335938 -7.828125 4.859375 -7.828125 C 5.785156 -7.828125 6.484375 -7.601562 6.953125 -7.15625 C 7.421875 -6.707031 7.65625 -5.992188 7.65625 -5.015625 L 7.65625 0 Z M 6.5 0 "/></g></g></g><g fill="#ecf4f3" fill-opacity="1"><g transform="translate(223.638906, 230.680195)"><g/></g></g><g fill="#ecf4f3" fill-opacity="1"><g transform="translate(227.366688, 230.680195)"><g><path d="M 4.8125 0.140625 C 4.3125 0.140625 3.851562 0.0507812 3.4375 -0.125 C 3.019531 -0.3125 2.671875 -0.597656 2.390625 -0.984375 L 2.3125 -0.984375 C 2.363281 -0.535156 2.390625 -0.113281 2.390625 0.28125 L 2.390625 3.453125 L 1.234375 3.453125 L 1.234375 -7.6875 L 2.1875 -7.6875 L 2.34375 -6.625 L 2.390625 -6.625 C 2.691406 -7.050781 3.039062 -7.359375 3.4375 -7.546875 C 3.832031 -7.734375 4.289062 -7.828125 4.8125 -7.828125 C 5.832031 -7.828125 6.617188 -7.476562 7.171875 -6.78125 C 7.722656 -6.082031 8 -5.101562 8 -3.84375 C 8 -2.582031 7.71875 -1.601562 7.15625 -0.90625 C 6.59375 -0.207031 5.8125 0.140625 4.8125 0.140625 Z M 4.640625 -6.84375 C 3.859375 -6.84375 3.289062 -6.625 2.9375 -6.1875 C 2.582031 -5.75 2.398438 -5.054688 2.390625 -4.109375 L 2.390625 -3.84375 C 2.390625 -2.769531 2.570312 -2 2.9375 -1.53125 C 3.300781 -1.0625 3.878906 -0.828125 4.671875 -0.828125 C 5.335938 -0.828125 5.859375 -1.097656 6.234375 -1.640625 C 6.609375 -2.179688 6.796875 -2.921875 6.796875 -3.859375 C 6.796875 -4.816406 6.609375 -5.550781 6.234375 -6.0625 C 5.859375 -6.582031 5.328125 -6.84375 4.640625 -6.84375 Z M 4.640625 -6.84375 "/></g></g></g><g fill="#ecf4f3" fill-opacity="1"><g transform="translate(236.160611, 230.680195)"><g><path d="M 5.953125 0 L 5.734375 -1.09375 L 5.671875 -1.09375 C 5.285156 -0.613281 4.898438 -0.285156 4.515625 -0.109375 C 4.140625 0.0546875 3.664062 0.140625 3.09375 0.140625 C 2.332031 0.140625 1.734375 -0.0507812 1.296875 -0.4375 C 0.867188 -0.832031 0.65625 -1.394531 0.65625 -2.125 C 0.65625 -3.675781 1.894531 -4.488281 4.375 -4.5625 L 5.6875 -4.609375 L 5.6875 -5.078125 C 5.6875 -5.679688 5.554688 -6.125 5.296875 -6.40625 C 5.035156 -6.695312 4.617188 -6.84375 4.046875 -6.84375 C 3.410156 -6.84375 2.6875 -6.648438 1.875 -6.265625 L 1.515625 -7.15625 C 1.898438 -7.351562 2.316406 -7.507812 2.765625 -7.625 C 3.210938 -7.75 3.664062 -7.8125 4.125 -7.8125 C 5.039062 -7.8125 5.71875 -7.609375 6.15625 -7.203125 C 6.601562 -6.796875 6.828125 -6.144531 6.828125 -5.25 L 6.828125 0 Z M 3.328125 -0.828125 C 4.054688 -0.828125 4.625 -1.023438 5.03125 -1.421875 C 5.445312 -1.816406 5.65625 -2.367188 5.65625 -3.078125 L 5.65625 -3.78125 L 4.5 -3.734375 C 3.570312 -3.703125 2.898438 -3.554688 2.484375 -3.296875 C 2.078125 -3.046875 1.875 -2.648438 1.875 -2.109375 C 1.875 -1.691406 2 -1.375 2.25 -1.15625 C 2.507812 -0.9375 2.867188 -0.828125 3.328125 -0.828125 Z M 3.328125 -0.828125 "/></g></g></g><g fill="#ecf4f3" fill-opacity="1"><g transform="translate(244.141708, 230.680195)"><g><path d="M 0.015625 -7.6875 L 1.265625 -7.6875 L 2.9375 -3.296875 C 3.3125 -2.296875 3.539062 -1.578125 3.625 -1.140625 L 3.6875 -1.140625 C 3.75 -1.378906 3.875 -1.785156 4.0625 -2.359375 C 4.257812 -2.929688 4.894531 -4.707031 5.96875 -7.6875 L 7.21875 -7.6875 L 3.921875 1.0625 C 3.585938 1.925781 3.203125 2.539062 2.765625 2.90625 C 2.335938 3.269531 1.800781 3.453125 1.15625 3.453125 C 0.800781 3.453125 0.453125 3.410156 0.109375 3.328125 L 0.109375 2.390625 C 0.367188 2.453125 0.65625 2.484375 0.96875 2.484375 C 1.769531 2.484375 2.34375 2.035156 2.6875 1.140625 L 3.109375 0.046875 Z M 0.015625 -7.6875 "/></g></g></g><g fill="#ecf4f3" fill-opacity="1"><g transform="translate(251.373045, 230.680195)"><g><path d="M 11.03125 0 L 11.03125 -5 C 11.03125 -5.613281 10.898438 -6.070312 10.640625 -6.375 C 10.378906 -6.6875 9.972656 -6.84375 9.421875 -6.84375 C 8.691406 -6.84375 8.15625 -6.632812 7.8125 -6.21875 C 7.46875 -5.800781 7.296875 -5.160156 7.296875 -4.296875 L 7.296875 0 L 6.125 0 L 6.125 -5 C 6.125 -5.613281 5.992188 -6.070312 5.734375 -6.375 C 5.472656 -6.6875 5.066406 -6.84375 4.515625 -6.84375 C 3.785156 -6.84375 3.25 -6.625 2.90625 -6.1875 C 2.5625 -5.75 2.390625 -5.03125 2.390625 -4.03125 L 2.390625 0 L 1.234375 0 L 1.234375 -7.6875 L 2.1875 -7.6875 L 2.375 -6.625 L 2.421875 -6.625 C 2.640625 -7 2.945312 -7.289062 3.34375 -7.5 C 3.75 -7.71875 4.203125 -7.828125 4.703125 -7.828125 C 5.898438 -7.828125 6.679688 -7.390625 7.046875 -6.515625 L 7.109375 -6.515625 C 7.335938 -6.921875 7.664062 -7.238281 8.09375 -7.46875 C 8.53125 -7.707031 9.03125 -7.828125 9.59375 -7.828125 C 10.457031 -7.828125 11.101562 -7.601562 11.53125 -7.15625 C 11.96875 -6.707031 12.1875 -5.992188 12.1875 -5.015625 L 12.1875 0 Z M 11.03125 0 "/></g></g></g><g fill="#ecf4f3" fill-opacity="1"><g transform="translate(264.721589, 230.680195)"><g><path d="M 4.484375 0.140625 C 3.347656 0.140625 2.453125 -0.203125 1.796875 -0.890625 C 1.140625 -1.585938 0.8125 -2.550781 0.8125 -3.78125 C 0.8125 -5.019531 1.113281 -6.003906 1.71875 -6.734375 C 2.332031 -7.460938 3.148438 -7.828125 4.171875 -7.828125 C 5.140625 -7.828125 5.90625 -7.507812 6.46875 -6.875 C 7.03125 -6.238281 7.3125 -5.40625 7.3125 -4.375 L 7.3125 -3.625 L 2.015625 -3.625 C 2.035156 -2.726562 2.257812 -2.046875 2.6875 -1.578125 C 3.125 -1.109375 3.734375 -0.875 4.515625 -0.875 C 5.347656 -0.875 6.164062 -1.046875 6.96875 -1.390625 L 6.96875 -0.359375 C 6.5625 -0.179688 6.175781 -0.0546875 5.8125 0.015625 C 5.445312 0.0976562 5.003906 0.140625 4.484375 0.140625 Z M 4.171875 -6.84375 C 3.546875 -6.84375 3.050781 -6.640625 2.6875 -6.234375 C 2.320312 -5.835938 2.109375 -5.285156 2.046875 -4.578125 L 6.0625 -4.578125 C 6.0625 -5.304688 5.894531 -5.863281 5.5625 -6.25 C 5.238281 -6.644531 4.773438 -6.84375 4.171875 -6.84375 Z M 4.171875 -6.84375 "/></g></g></g><g fill="#ecf4f3" fill-opacity="1"><g transform="translate(272.772758, 230.680195)"><g><path d="M 6.5 0 L 6.5 -4.96875 C 6.5 -5.59375 6.351562 -6.0625 6.0625 -6.375 C 5.78125 -6.6875 5.332031 -6.84375 4.71875 -6.84375 C 3.914062 -6.84375 3.328125 -6.625 2.953125 -6.1875 C 2.578125 -5.75 2.390625 -5.03125 2.390625 -4.03125 L 2.390625 0 L 1.234375 0 L 1.234375 -7.6875 L 2.1875 -7.6875 L 2.375 -6.625 L 2.421875 -6.625 C 2.660156 -7.007812 2.992188 -7.304688 3.421875 -7.515625 C 3.859375 -7.722656 4.335938 -7.828125 4.859375 -7.828125 C 5.785156 -7.828125 6.484375 -7.601562 6.953125 -7.15625 C 7.421875 -6.707031 7.65625 -5.992188 7.65625 -5.015625 L 7.65625 0 Z M 6.5 0 "/></g></g></g><g fill="#ecf4f3" fill-opacity="1"><g transform="translate(281.580694, 230.680195)"><g><path d="M 3.71875 -0.828125 C 3.925781 -0.828125 4.125 -0.835938 4.3125 -0.859375 C 4.5 -0.890625 4.648438 -0.921875 4.765625 -0.953125 L 4.765625 -0.0625 C 4.640625 -0.0078125 4.453125 0.0351562 4.203125 0.078125 C 3.960938 0.117188 3.742188 0.140625 3.546875 0.140625 C 2.054688 0.140625 1.3125 -0.640625 1.3125 -2.203125 L 1.3125 -6.78125 L 0.21875 -6.78125 L 0.21875 -7.34375 L 1.3125 -7.828125 L 1.8125 -9.46875 L 2.484375 -9.46875 L 2.484375 -7.6875 L 4.71875 -7.6875 L 4.71875 -6.78125 L 2.484375 -6.78125 L 2.484375 -2.25 C 2.484375 -1.789062 2.59375 -1.4375 2.8125 -1.1875 C 3.03125 -0.945312 3.332031 -0.828125 3.71875 -0.828125 Z M 3.71875 -0.828125 "/></g></g></g><g fill="#ecf4f3" fill-opacity="1"><g transform="translate(286.646834, 230.680195)"><g><path d="M 6.1875 -2.09375 C 6.1875 -1.382812 5.921875 -0.832031 5.390625 -0.4375 C 4.859375 -0.0507812 4.109375 0.140625 3.140625 0.140625 C 2.128906 0.140625 1.335938 -0.0195312 0.765625 -0.34375 L 0.765625 -1.421875 C 1.128906 -1.234375 1.523438 -1.085938 1.953125 -0.984375 C 2.378906 -0.878906 2.785156 -0.828125 3.171875 -0.828125 C 3.785156 -0.828125 4.253906 -0.921875 4.578125 -1.109375 C 4.898438 -1.304688 5.0625 -1.601562 5.0625 -2 C 5.0625 -2.300781 4.929688 -2.554688 4.671875 -2.765625 C 4.421875 -2.972656 3.914062 -3.222656 3.15625 -3.515625 C 2.445312 -3.785156 1.941406 -4.019531 1.640625 -4.21875 C 1.335938 -4.414062 1.113281 -4.640625 0.96875 -4.890625 C 0.820312 -5.140625 0.75 -5.441406 0.75 -5.796875 C 0.75 -6.421875 1 -6.914062 1.5 -7.28125 C 2.007812 -7.644531 2.710938 -7.828125 3.609375 -7.828125 C 4.429688 -7.828125 5.238281 -7.65625 6.03125 -7.3125 L 5.609375 -6.375 C 4.835938 -6.6875 4.140625 -6.84375 3.515625 -6.84375 C 2.960938 -6.84375 2.546875 -6.753906 2.265625 -6.578125 C 1.984375 -6.410156 1.84375 -6.175781 1.84375 -5.875 C 1.84375 -5.664062 1.894531 -5.488281 2 -5.34375 C 2.113281 -5.195312 2.285156 -5.054688 2.515625 -4.921875 C 2.753906 -4.796875 3.203125 -4.613281 3.859375 -4.375 C 4.773438 -4.039062 5.390625 -3.703125 5.703125 -3.359375 C 6.023438 -3.023438 6.1875 -2.601562 6.1875 -2.09375 Z M 6.1875 -2.09375 "/></g></g></g></svg>